<svg xmlns="http://www.w3.org/2000/svg" viewBox="0 0 1000 450" fill="none">
  <!-- Großes Q mit Lupe und Zahnrad -->
  <g fill="#2C2947">
    <!-- Äußerer Ring des Q -->
    <path d="M 180 225 C 180 141 141 90 90 90 C 39 90 0 141 0 225 C 0 309 39 360 90 360 C 110 360 128 353 143 340 L 185 382 C 192 389 202 394 213 394 L 243 394 C 254 394 264 389 271 382 L 185 296 C 198 273 180 225 180 225 Z M 90 315 C 64 315 45 276 45 225 C 45 174 64 135 90 135 C 116 135 135 174 135 225 C 135 276 116 315 90 315 Z"/>

    <!-- Inneres Zahnrad im Q -->
    <circle cx="90" cy="225" r="50" fill="none" stroke="#2C2947" stroke-width="8"/>
    <path d="M 85 185 L 90 190 L 95 185 L 95 195 L 85 195 Z"/>
    <path d="M 125 220 L 120 225 L 125 230 L 115 230 L 115 220 Z"/>
    <path d="M 85 265 L 90 260 L 95 265 L 95 255 L 85 255 Z"/>
    <path d="M 55 230 L 60 225 L 55 220 L 65 220 L 65 230 Z"/>

    <!-- Schreibfeder-Spitze am Q-Schwanz -->
    <path d="M 243 394 L 280 431 L 295 416 L 290 405 C 290 405 270 420 260 410 C 250 400 265 380 265 380 L 254 369 L 243 394 Z"/>
    <path d="M 260 410 L 275 425 L 280 420 L 265 405 Z" fill="#F5F5F5"/>
  </g>

  <!-- "Quill" Text -->
  <g fill="#2C2947">
    <!-- Q -->
    <path d="M 450 140 Q 450 80 485 50 Q 520 20 580 20 Q 640 20 675 50 Q 710 80 710 140 L 710 260 Q 710 320 675 350 Q 640 380 580 380 Q 520 380 485 350 Q 450 320 450 260 Z M 510 140 L 510 260 Q 510 295 530 315 Q 550 335 580 335 Q 610 335 630 315 Q 650 295 650 260 L 650 140 Q 650 105 630 85 Q 610 65 580 65 Q 550 65 530 85 Q 510 105 510 140 Z M 625 340 L 695 410 L 640 410 L 570 340 Z"/>

    <!-- u -->
    <path d="M 750 100 L 805 100 L 805 260 Q 805 290 820 305 Q 835 320 865 320 Q 895 320 910 305 Q 925 290 925 260 L 925 100 L 980 100 L 980 260 Q 980 330 945 360 Q 910 390 865 390 Q 820 390 785 360 Q 750 330 750 260 Z"/>

    <!-- i -->
    <path d="M 1030 100 L 1085 100 L 1085 370 L 1030 370 Z M 1030 20 L 1085 20 L 1085 75 L 1030 75 Z"/>

    <!-- l -->
    <path d="M 1135 20 L 1190 20 L 1190 370 L 1135 370 Z"/>

    <!-- l -->
    <path d="M 1240 20 L 1295 20 L 1295 370 L 1240 370 Z"/>
  </g>
</svg>
